<?xml version="1.0" encoding="iso-8859-1"?>
<!-- Uploaded to: SVG Repo, www.svgrepo.com, Generator: SVG Repo Mixer Tools -->
<svg version="1.1" id="Layer_1" xmlns="http://www.w3.org/2000/svg" xmlns:xlink="http://www.w3.org/1999/xlink" 
	 viewBox="0 0 512 512" xml:space="preserve">
<circle style="fill:#FF0647;" cx="256" cy="256" r="256"/>
<path style="fill:#C61048;" d="M273.68,511.381c117.979-8.049,214.007-96.015,234.343-210.192L361.269,154.434l-14.817,20.406
	l-29.044-29.044l-1.808,41.856l-42.899-42.899l5.313,56.094l-49.13-49.13c0,0-0.431,27.574-0.86,52.922l-48.554-46.999
	L53.982,291.683L273.68,511.381z"/>
<path style="fill:#F2C664;" d="M359.957,201.464v94.408c0,16.381-13.279,29.658-29.658,29.658h-11.697v62.033H194.536v-82.711
	V180.786h165.421V201.464z"/>
<path style="fill:#E8BA5D;" d="M255.019,180.788v206.777h63.583v-62.033h11.697c16.381,0,29.658-13.279,29.658-29.658v-94.408
	v-20.678L255.019,180.788L255.019,180.788z"/>
<rect x="57.061" y="151.721" style="fill:#FFBF1A;" width="96.19" height="139.964"/>
<rect x="57.061" y="221.608" style="fill:#F4A200;" width="96.19" height="70.078"/>
<g>
	<rect x="57.061" y="258.689" style="fill:#FFBF1A;" width="61.199" height="9.544"/>
	<rect x="57.061" y="230.848" style="fill:#FFBF1A;" width="61.199" height="9.544"/>
</g>
<g>
	<rect x="57.061" y="203.007" style="fill:#FFDC86;" width="61.199" height="9.544"/>
	<rect x="57.061" y="175.183" style="fill:#FFDC86;" width="61.199" height="9.544"/>
</g>
<path style="fill:#00447D;" d="M135.752,291.683h32.782c10.883,0,19.704-8.823,19.704-19.704v-30.661h207.939
	c10.833,0,19.616-8.783,19.616-19.616l0,0c0-10.833-8.783-19.616-19.616-19.616H188.238v-30.661
	c0-10.883-8.823-19.704-19.704-19.704h-32.782L135.752,291.683z M400.949,221.701c0,4.393-3.56,7.952-7.952,7.952
	s-7.952-3.56-7.952-7.952c0-4.393,3.56-7.952,7.952-7.952C397.39,213.749,400.949,217.309,400.949,221.701z"/>
<path style="fill:#062964;" d="M400.939,221.605c0,0.033,0.01,0.064,0.01,0.097c0,4.393-3.56,7.952-7.952,7.952
	s-7.952-3.56-7.952-7.952c0-0.033,0.009-0.064,0.01-0.097H135.752v70.079h32.782c10.883,0,19.704-8.823,19.704-19.704v-30.661
	h207.939c10.833,0,19.616-8.783,19.616-19.616l0,0c0-0.033-0.005-0.064-0.005-0.097L400.939,221.605L400.939,221.605z"/>
<path style="fill:#FCD37A;" d="M186.594,178.102c4.258,11.971,7.942,31.832,7.942,64.717h6.475c19.265,0,34.88,15.617,34.88,34.88
	v47.83h-53.26c-16.265,0-29.449-13.186-29.449-29.449v-135.97h7.982C172.599,160.109,182.76,167.327,186.594,178.102z"/>
<path style="fill:#FFEBB4;" d="M153.181,160.109c0,0,20.259-1.879,20.678,20.678v20.678h-20.678V160.109z"/>
<path style="fill:#FCD37A;" d="M220.122,229.057h-9.818c-8.709,0-15.769-7.059-15.769-15.769v-51.174
	c0-8.709,7.059-15.769,15.769-15.769h9.818c8.709,0,15.769,7.059,15.769,15.769v51.172
	C235.891,221.996,228.831,229.057,220.122,229.057z"/>
<path style="fill:#FFEBB4;" d="M197.668,193.967v17.949c0,7.39,5.991,13.379,13.379,13.379h8.33c7.389,0,13.379-5.991,13.379-13.379
	v-17.949L197.668,193.967L197.668,193.967z"/>
<path style="fill:#FCD37A;" d="M263.983,242.821h-9.818c-8.709,0-15.769-7.059-15.769-15.769v-71.851
	c0-8.709,7.059-15.769,15.769-15.769h9.818c8.709,0,15.769,7.059,15.769,15.769v71.851
	C279.754,235.76,272.693,242.821,263.983,242.821z"/>
<path style="fill:#E2BB6D;" d="M263.983,139.431h-8.389v103.388h8.389c8.709,0,15.769-7.059,15.769-15.769v-71.849
	C279.754,146.492,272.693,139.431,263.983,139.431z"/>
<path style="fill:#FFEBB4;" d="M241.531,207.731v17.949c0,7.39,5.991,13.379,13.379,13.379h8.33c7.389,0,13.379-5.991,13.379-13.379
	v-17.949H241.531z"/>
<path style="fill:#FFDC86;" d="M255.595,207.731v31.33h7.646c7.389,0,13.379-5.991,13.379-13.379v-17.951H255.595z"/>
<path style="fill:#DDB668;" d="M307.845,236.554h-9.818c-8.709,0-15.769-7.059-15.769-15.769v-65.584
	c0-8.709,7.059-15.769,15.769-15.769h9.818c8.709,0,15.769,7.059,15.769,15.769v65.584
	C323.615,229.495,316.554,236.554,307.845,236.554z"/>
<path style="fill:#FFDC86;" d="M285.393,201.464v17.949c0,7.39,5.991,13.379,13.379,13.379h8.33c7.389,0,13.379-5.991,13.379-13.379
	v-17.949L285.393,201.464L285.393,201.464z"/>
<path style="fill:#E5BF73;" d="M351.708,230.781h-9.818c-8.709,0-15.769-7.059-15.769-15.769v-51.174
	c0-8.709,7.059-15.769,15.769-15.769h9.818c8.709,0,15.769,7.059,15.769,15.769v51.172
	C367.476,223.72,360.417,230.781,351.708,230.781z"/>
<path style="fill:#FFDC86;" d="M329.254,195.691v17.949c0,7.39,5.991,13.379,13.379,13.379h8.33c7.389,0,13.379-5.991,13.379-13.379
	v-17.949L329.254,195.691L329.254,195.691z"/>
<rect x="170.839" y="338.541" style="fill:#FFFFFF;" width="170.667" height="56.889"/>
<rect x="255.586" y="338.541" style="fill:#D0D1D3;" width="85.907" height="56.889"/>
<path style="fill:#BDFBFD;" d="M170.836,497.412c26.693,9.435,55.41,14.588,85.333,14.588s58.64-5.153,85.333-14.588V366.987
	H170.836L170.836,497.412L170.836,497.412z"/>
<path style="fill:#00E4ED;" d="M255.595,366.987v145.006c0.191,0,0.383,0.007,0.574,0.007c29.924,0,58.64-5.153,85.333-14.588
	V366.987H255.595z"/>
</svg>