<?xml version="1.0" encoding="iso-8859-1"?>
<!-- Uploaded to: SVG Repo, www.svgrepo.com, Generator: SVG Repo Mixer Tools -->
<svg version="1.1" id="Layer_1" xmlns="http://www.w3.org/2000/svg" xmlns:xlink="http://www.w3.org/1999/xlink" 
	 viewBox="0 0 512 512" xml:space="preserve">
<circle style="fill:#FFEBB4;" cx="256" cy="256" r="256"/>
<path style="fill:#FFDC86;" d="M506.696,308.071l-79.715-79.715l-208.389,47.699l-84.413,71.889l-2.812,30.967l132.942,132.942
	C384.141,508.028,483.181,421.864,506.696,308.071z"/>
<rect x="197.48" y="133.281" transform="matrix(-0.7071 -0.7071 0.7071 -0.7071 363.5796 571.019)" style="fill:#FFBF1A;" width="205.143" height="153.857"/>
<rect x="285.02" y="169.56" transform="matrix(-0.7071 -0.7071 0.7071 -0.7071 399.8154 658.5867)" style="fill:#F4A200;" width="102.571" height="153.857"/>
<g>
	
		<rect x="267.909" y="97.527" transform="matrix(-0.7071 -0.7071 0.7071 -0.7071 364.0621 448.425)" style="fill:#FFDC86;" width="13.988" height="102.571"/>
	
		<rect x="296.762" y="126.379" transform="matrix(-0.7071 -0.7071 0.7071 -0.7071 392.9158 518.0814)" style="fill:#FFDC86;" width="13.988" height="102.571"/>
	
		<rect x="325.62" y="155.22" transform="matrix(-0.7071 -0.7071 0.7071 -0.7071 421.7867 587.7205)" style="fill:#FFDC86;" width="13.988" height="102.571"/>
	
		<rect x="354.461" y="184.084" transform="matrix(-0.7071 -0.7071 0.7071 -0.7071 450.6109 657.389)" style="fill:#FFDC86;" width="13.988" height="102.571"/>
</g>
<path style="fill:#00447D;" d="M191.259,173.958l-33.975,33.975c-11.278,11.278-11.28,29.565,0,40.844l31.777,31.777l-57.694,57.694
	c-11.228,11.228-11.228,29.432,0,40.66l0,0c11.228,11.228,29.432,11.228,40.66,0l57.694-57.694l31.777,31.777
	c11.28,11.28,29.565,11.278,40.844,0l33.975-33.975L191.259,173.958z M146.753,363.525c-4.551-4.551-4.551-11.933,0-16.484
	c4.551-4.551,11.933-4.551,16.484,0c4.551,4.551,4.551,11.933,0,16.484C158.686,368.076,151.304,368.076,146.753,363.525z"/>
<path style="fill:#062964;" d="M163.237,347.041c4.551,4.553,4.551,11.931,0,16.484c-4.551,4.551-11.931,4.551-16.484,0
	l-15.386,15.384c11.228,11.228,29.432,11.228,40.66,0l57.694-57.694l31.777,31.777c11.28,11.278,29.565,11.278,40.844,0
	l33.975-33.975l-72.53-72.53L163.237,347.041z"/>
</svg>