<svg xmlns="http://www.w3.org/2000/svg" data-name="Layer 1" width="861.34285" height="648.67936" viewBox="0 0 861.34285 648.67936" xmlns:xlink="http://www.w3.org/1999/xlink"><path d="M487.96668,298.31443c37.10109-23.94307,88.20046-14.64015,124.34793,10.72884a196.9347,196.9347,0,0,1,32.30722,28.82658c5.64318,6.18962,10.99283,12.68743,16.10981,19.409,1.26068,1.64909,2.51531,3.31471,3.74573,4.99679q1.26287,1.70574,2.50473,3.43526c10.37769,14.42492,19.89188,29.60015,29.20575,44.63751,23.25089,37.5382,47.10783,76.19386,82.53441,102.54908,7.29895,5.42842,17.482,10.31693,24.95986,5.13332,6.48912-4.50162,6.7671-13.96718,5.29023-21.72428-5.49032-28.74-25.29548-52.55662-46.33553-72.88759-21.03978-20.33084-44.332-38.97058-60.22963-63.5374-15.8979-24.56687-23.16127-57.36431-9.23631-83.09406,12.00085-22.17255,37.8208-34.60974,63.02364-35.189,25.20065-.57377,49.68543,9.22225,71.00676,22.6735,21.31941,13.45676,40.066,30.53133,59.63091,46.42986,11.79386,9.5917,28.26094,19.10907,41.11381,10.98808,10.85632-6.863,11.70313-23.33834,5.233-34.43131s-18.01809-18.0644-29.08878-24.56575q-51.5577-30.28842-103.11733-60.5713c-10.54549-6.18859-21.32085-12.575-29.10512-22.01161-7.78648-9.43112-12.10823-22.68629-7.81685-34.1389,4.23393-11.2862,16.05933-18.45281,28.02325-19.94843,11.95605-1.49217,24.0148,1.823,35.19936,6.31353,41.91245,16.83224,140.602,126.95133,166.90453,145.77839,16.90328,12.0919,34.65985,27.40012,36.36931,48.11155,2.1296,25.78425-23.526,47.18186-49.27763,49.68313-25.74808,2.50866-50.70386-8.68727-73.71019-20.52382s-46.48564-24.88724-72.30913-26.53029c-25.823-1.64282-54.79532,12.16074-60.91654,37.29958-5.32348,21.87428,8.20967,44.44617,25.83789,58.44235,13.79843,10.95842,29.99225,18.25607,45.63451,26.46205,4.3438,2.27173,8.64194,4.62083,12.8341,7.132a180.25086,180.25086,0,0,1,29.93459,22.5045,183.67679,183.67679,0,0,1,25.77414,29.64094,179.18159,179.18159,0,0,1,15.62068,27.17341q1.00641,2.1759,1.95446,4.4124c.59864,1.42551,1.17874,2.86947,1.72867,4.32782,7.17972,18.91307,9.97662,40.10751.8045,57.76316-9.14885,17.60784-28.96516,28.03412-48.75259,29.48a89.80071,89.80071,0,0,1-33.791-4.46408,137.2297,137.2297,0,0,1-23.12969-9.94084C794.52567,600.7,767.40355,571.54178,742.6339,541.566c-24.7637-29.9737-48.08255-61.5336-77.48153-86.97744-29.39734-25.44945-66.23669-44.69009-105.12049-44.39784-38.88188.2867-78.96477,23.97778-90.00792,61.25757-16.09646-27.73614-26.98109-59.35475-25.544-91.388S461.024,315.70525,487.96668,298.31443Z" transform="translate(-169.32858 -125.66032)" fill="#3f3d56"/><circle cx="469.48709" cy="272.01678" r="4.2718" fill="#6c63ff"/><circle cx="308.49926" cy="275.79175" r="6.60457" fill="#ff6584"/><circle cx="785.86508" cy="221.51745" r="2.44032" fill="#ff6584"/><circle cx="736.48895" cy="90.36211" r="2.44032" fill="#ff6584"/><path d="M843.02633,456.74236a26.07891,26.07891,0,0,1,2.78-5.68327c4.3438,2.27173,8.64194,4.62083,12.8341,7.132a180.25086,180.25086,0,0,1,29.93459,22.5045,26.02472,26.02472,0,0,1-45.54867-23.95319Z" transform="translate(-169.32858 -125.66032)" fill="#ff6584"/><circle cx="362.47378" cy="249.1678" r="2.49578" fill="#f0f0f0"/><circle cx="668.2498" cy="64.51306" r="2.49578" fill="#f0f0f0"/><circle cx="645.77831" cy="20.05675" r="2.49578" fill="#f0f0f0"/><circle cx="822.50254" cy="185.77006" r="2.49578" fill="#f0f0f0"/><circle cx="691.4035" cy="189.35566" r="2.49578" fill="#f0f0f0"/><circle cx="621.83508" cy="427.40632" r="2.49578" fill="#f0f0f0"/><circle cx="543.40782" cy="193.29038" r="2.49578" fill="#f0f0f0"/><circle cx="539.90427" cy="146.09722" r="2.49578" fill="#f0f0f0"/><path d="M866.14147,532.28381c-3.70615-.15179-7.30281-.16975-10.76983-.04989-21.35628.73815-35.58147,6.85689-39.02807,16.788s3.92974,23.54668,20.23724,37.35613q2.419,2.0484,5.04258,4.06347a80.0276,80.0276,0,0,1,24.51808-58.15768Z" transform="translate(-169.32858 -125.66032)" fill="none"/><path d="M846.04959,563.68214a79.49915,79.49915,0,0,1,20.09249-31.39921q1.80051-1.72372,3.7035-3.33106a80.08128,80.08128,0,0,1,44.50356-18.61538,179.18438,179.18438,0,0,1,15.62068,27.17341q1.00639,2.17594,1.95446,4.4124c.59864,1.42551,1.17874,2.86947,1.72867,4.32782,7.17972,18.91307,9.97662,40.10751.8045,57.76316-9.14885,17.60784-28.96517,28.03416-48.7526,29.48007a89.80131,89.80131,0,0,1-33.791-4.46411,79.90212,79.90212,0,0,1-10.1306-34.05964c-.09842-1.50666-.14666-3.01457-.16151-4.52952A79.68475,79.68475,0,0,1,846.04959,563.68214Z" transform="translate(-169.32858 -125.66032)" fill="#6c63ff"/><path d="M813.01622,547.86864c4.00872-11.55075,19.00577-18.34978,42.2361-19.15377,4.64842-.16374,9.76062,1.76955,14.59326.237,23.44495-7.43488,44.71546-2.57642,62.07868,12.9704.59863,1.42553,1.17876,2.86948,1.72869,4.32783-.23093-.08636-.46379-.16717-.69664-.248-23.462-8.14252-46.75216-12.8952-66.81423-13.7192-3.707-.14949-8.129-2.29424-10.76958-.04705-21.20758,18.04834-35.55151,10.486-39.02911,16.78748-5.07941,9.204,3.93167,23.5454,20.23837,37.35631q2.41941,2.05122,5.04,4.06041c.01485,1.51495.06309,3.02286.16151,4.52952q-3.94577-2.91643-7.47707-5.90033C816.56833,574.04719,809.00944,559.41384,813.01622,547.86864Z" transform="translate(-169.32858 -125.66032)" fill="#e4e4e4"/><circle cx="731.55933" cy="501.52259" r="2.49578" fill="#f0f0f0"/><circle cx="687.40279" cy="469.42248" r="2.49578" fill="#f0f0f0"/><circle cx="721.18621" cy="454.43059" r="24.27028" fill="#f0f0f0"/><path d="M509.19491,311.783c5.67345.26659,17.40774,3.08394,30.12317,6.72643,12.70782,3.64607,26.49182,8.09431,40.10029,12.4941q35.73268,11.54366,71.46211,23.08,4.91208,1.5836,9.85116,3.19521c1.26068,1.64909,2.51531,3.31471,3.74573,4.99679-2.89437-1.02316-5.8003-2.013-8.69749-2.95637-12.37844-4.02258-23.1198-6.67554-35.13327-10.33536-18.48821-5.62729-37.99248-13.0176-56.909-19.8995C544.823,322.19693,523.12131,314.78335,509.19491,311.783Z" transform="translate(-169.32858 -125.66032)" fill="#f0f0f0" opacity="0.3"/><path d="M932.75759,262.92414l53.58031,88.947-50.55816-90.71607a1.84948,1.84948,0,1,0-3.02215,1.76906Z" transform="translate(-169.32858 -125.66032)" fill="#f0f0f0" opacity="0.3"/><circle cx="737.2964" cy="397.26895" r="2.49578" fill="#f0f0f0"/></svg>