<svg xmlns="http://www.w3.org/2000/svg" data-name="Layer 1" width="300" height="300" viewBox="290 370 100 140" xmlns:xlink="http://www.w3.org/1999/xlink"><circle cx="336.97785" cy="450.70425" r="42.01233" fill="#2f2e41"/><rect x="565.93651" y="563.55388" width="22.86756" height="12.76328" transform="translate(-457.82019 238.05835) rotate(-26.60099)" fill="#2f2e41"/><ellipse cx="563.82041" cy="573.74843" rx="3.98853" ry="10.63605" transform="translate(-489.27546 647.82906) rotate(-56.60122)" fill="#2f2e41"/><rect x="617.67227" y="558.50174" width="12.76328" height="22.86756" transform="translate(-428.72163 791.92555) rotate(-63.39901)" fill="#2f2e41"/><ellipse cx="637.60379" cy="573.74843" rx="10.63605" ry="3.98853" transform="translate(-474.26735 364.92328) rotate(-33.39878)" fill="#2f2e41"/><circle cx="334.03663" cy="440.42779" r="14.35864" fill="#fff"/><ellipse cx="597.86951" cy="515.08401" rx="4.76624" ry="4.8" transform="translate(-452.84172 492.81919) rotate(-45)" fill="#3f3d56"/><path d="M633.854,485.80233c.63177-15.55359-12.77314-28.7276-29.9408-29.42493s-31.59692,11.346-32.22873,26.8996,11.30191,19.08746,28.46958,19.78485S633.22214,501.35592,633.854,485.80233Z" transform="translate(-263.73425 -80.80301)" fill="#6c63ff"/><ellipse cx="644.38811" cy="537.56776" rx="6.59448" ry="21.00616" transform="translate(-458.4377 468.61755) rotate(-40.64516)" fill="#2f2e41"/><ellipse cx="557.15365" cy="537.56776" rx="21.00616" ry="6.59448" transform="translate(-477.37906 529.35274) rotate(-49.35484)" fill="#2f2e41"/><path d="M612.25083,548.0638a9.57244,9.57244,0,0,1-18.83533,3.42884l-.00336-.0185c-.94177-5.20214,3.08039-7.043,8.28254-7.98474S611.30912,542.86166,612.25083,548.0638Z" transform="translate(-263.73425 -80.80301)" fill="#fff"/></svg>