<svg xmlns="http://www.w3.org/2000/svg" data-name="Layer 1" width="300" height="300" viewBox="490 600 100 140" xmlns:xlink="http://www.w3.org/1999/xlink"><ellipse cx="858.10361" cy="764.78333" rx="6.76007" ry="21.53369" transform="translate(-554.53185 648.46489) rotate(-39.93837)" fill="#9546c7"/><circle cx="812.2965" cy="757.30544" r="43.06733" transform="translate(-426.75153 1207.63346) rotate(-71.56505)" fill="#9546c7"/><rect x="553.7073" y="710.30199" width="13.08374" height="23.44171" fill="#9546c7"/><rect x="527.53982" y="710.30199" width="13.08374" height="23.44171" fill="#9546c7"/><ellipse cx="555.8879" cy="734.01629" rx="10.90314" ry="4.08868" fill="#9546c7"/><ellipse cx="529.72042" cy="733.47115" rx="10.90314" ry="4.08868" fill="#9546c7"/><path d="M798.77365,703.16853c3.84557-15.487,20.82057-24.60076,37.91471-20.35617s27.83428,20.24028,23.98871,35.72729-16.60394,15.537-33.69809,11.29233S794.92806,718.65557,798.77365,703.16853Z" transform="translate(-263.73425 -80.80301)" fill="#ccc"/><ellipse cx="763.7883" cy="737.32189" rx="6.76007" ry="21.53369" transform="translate(-493.44249 1030.65892) rotate(-64.62574)" fill="#9546c7"/><circle cx="542.12366" cy="667.41487" r="14.35864" fill="#fff"/><circle cx="536.22229" cy="662.26808" r="4.78622" fill="#3f3d56"/><circle cx="542" cy="697.39398" r="6" fill="#fff"/></svg>