<svg width="1356" height="1347" xmlns="http://www.w3.org/2000/svg" xmlns:xlink="http://www.w3.org/1999/xlink" xml:space="preserve" overflow="hidden"><defs><clipPath id="clip0"><rect x="1352" y="545" width="1356" height="1347"/></clipPath></defs><g clip-path="url(#clip0)" transform="translate(-1352 -545)"><path d="M1757.01 1421C1536.9 1420.18 1358.27 1241.82 1356.02 1020.62L1758.5 1016.5Z" fill="#1E656D" fill-rule="evenodd" fill-opacity="1"/><path d="M1357.99 550.003C1578.1 550.822 1756.73 729.181 1758.98 950.376L1356.5 954.5Z" fill="#F62A00" fill-rule="evenodd" fill-opacity="1"/><path d="M2301.99 1016C2522.1 1016.82 2700.74 1195.18 2702.98 1416.38L2300.5 1420.5Z" fill="#1E656D" fill-rule="evenodd" fill-opacity="1"/><path d="M1757.01 1885C1536.9 1884.18 1358.27 1705.82 1356.02 1484.62L1758.5 1480.5Z" fill="#00293C" fill-rule="evenodd" fill-opacity="1"/><path d="M2705 1490.99C2704.18 1711.1 2525.82 1889.74 2304.62 1891.98L2300.5 1489.5Z" fill="#1E656D" fill-rule="evenodd" fill-opacity="1"/><path d="M2701 552.991C2700.18 773.103 2521.82 951.735 2300.62 953.979L2296.5 551.5Z" fill="#F1F3CE" fill-rule="evenodd" fill-opacity="1"/><rect x="1835" y="550" width="403" height="404" fill="#F1F3CE" fill-opacity="1"/><rect x="1835" y="1013" width="403" height="404" fill="#1E656D" fill-opacity="1"/><rect x="1835" y="1482" width="403" height="405" fill="#00293C" fill-opacity="1"/></g></svg>