<?xml version="1.0" standalone="no"?>
<!DOCTYPE svg PUBLIC "-//W3C//DTD SVG 20010904//EN"
 "http://www.w3.org/TR/2001/REC-SVG-20010904/DTD/svg10.dtd">
<svg version="1.0" xmlns="http://www.w3.org/2000/svg"
 width="1356.000000pt" height="1356.000000pt" viewBox="0 0 1356.000000 1356.000000"
 preserveAspectRatio="xMidYMid meet">
<metadata>
Created by potrace 1.14, written by Peter Selinger 2001-2017
</metadata>
<g transform="translate(0.000000,1356.000000) scale(0.100000,-0.100000)"
fill="#000000" stroke="none">
<path d="M59 13300 c0 -80 -2 -505 -4 -945 -2 -440 -5 -1284 -7 -1875 l-3
-1075 425 1 c457 2 1418 10 3120 29 217 2 415 4 438 5 l44 0 -6 118 c-12 215
-22 324 -42 442 -4 19 -8 49 -10 65 -2 17 -6 41 -9 55 -3 14 -8 41 -11 60 -27
154 -141 554 -189 665 -7 17 -39 91 -70 165 -315 751 -902 1423 -1622 1858
-120 73 -384 210 -481 250 -95 40 -288 112 -299 112 -7 0 -21 4 -31 9 -46 25
-356 107 -512 135 -138 25 -174 30 -342 51 -41 5 -240 16 -330 19 l-58 1 -1
-145z"/>
<path d="M4830 11425 l0 -2020 2013 0 2012 0 0 2020 0 2020 -2013 0 -2012 0 0
-2020z"/>
<path d="M9448 13422 c-2 -4 -3 -50 -2 -102 0 -52 4 -430 8 -840 5 -410 9
-882 11 -1050 2 -168 6 -611 10 -985 7 -651 12 -1023 14 -1036 1 -4 27 -5 59
-4 197 11 282 16 322 21 90 10 266 36 308 45 23 5 59 12 79 15 89 14 332 80
480 130 392 131 746 313 1075 551 48 34 95 69 105 77 10 8 47 37 82 65 154
122 381 342 531 517 14 16 64 79 111 139 477 611 766 1346 834 2120 11 135 16
325 8 326 -57 7 -4032 18 -4035 11z"/>
<path d="M4834 8811 c-2 -2 -4 -912 -4 -2020 l0 -2017 2015 1 2015 0 0 2020 0
2020 -2011 0 c-1106 0 -2013 -2 -2015 -4z"/>
<path d="M9499 8655 c-3 -648 -8 -2057 -11 -2890 l-3 -1020 425 1 c458 2 1597
12 3100 29 217 2 419 4 449 5 l53 0 -6 123 c-17 345 -73 689 -153 952 -96 315
-162 482 -288 730 -40 77 -84 159 -98 182 -15 24 -27 45 -27 48 0 3 -9 18 -19
33 -10 15 -49 73 -85 129 -216 333 -504 648 -851 932 -306 250 -729 488 -1120
630 -99 36 -281 94 -331 106 -220 53 -275 65 -304 70 -19 3 -73 12 -120 20
-47 7 -112 17 -145 20 -33 4 -71 8 -85 10 -27 4 -240 16 -327 19 l-53 1 -1
-130z"/>
<path d="M3447 8773 c-1 -1 -281 -4 -622 -7 -1349 -14 -1655 -17 -2040 -21
-220 -2 -478 -4 -573 -5 l-174 -2 6 -141 c4 -78 8 -155 10 -172 2 -16 7 -58
11 -92 4 -35 8 -73 10 -85 13 -107 20 -149 42 -258 14 -69 27 -133 29 -143 14
-73 102 -365 141 -467 142 -374 284 -642 522 -980 25 -36 48 -67 51 -70 3 -3
30 -36 60 -75 88 -113 195 -232 314 -350 444 -441 967 -764 1551 -960 138 -47
309 -95 385 -110 12 -2 29 -6 38 -9 9 -3 28 -7 42 -10 14 -2 52 -9 85 -15 33
-6 76 -13 95 -16 19 -3 46 -7 60 -10 14 -2 50 -7 80 -10 30 -3 66 -7 80 -9 39
-7 216 -18 313 -21 l87 -2 1 451 c0 248 2 825 4 1281 2 457 5 1163 6 1570 l3
740 -308 0 c-169 0 -308 -1 -309 -2z"/>
<path d="M3467 4133 c-1 -1 -288 -4 -637 -7 -1301 -13 -1664 -16 -2035 -21
-209 -2 -465 -4 -568 -4 l-189 -1 6 -142 c4 -79 8 -159 11 -178 2 -19 6 -62
10 -95 37 -352 147 -777 287 -1110 48 -115 153 -332 196 -405 11 -19 30 -53
42 -75 42 -77 246 -384 270 -405 3 -3 30 -36 60 -75 296 -378 725 -747 1150
-990 377 -215 861 -395 1241 -460 133 -23 214 -35 264 -41 33 -3 68 -8 78 -10
18 -3 170 -13 304 -19 46 -2 85 0 87 4 3 4 8 754 11 1667 3 912 7 1819 8 2014
l2 355 -298 0 c-164 0 -299 -1 -300 -2z"/>
<path d="M4830 2100 l0 -2026 2015 0 2015 0 0 2026 0 2025 -2015 0 -2015 0 0
-2025z"/>
<path d="M9488 4115 c-1 -2 -2 -70 -1 -152 1 -81 4 -447 8 -813 3 -366 8 -838
10 -1050 9 -880 17 -1627 19 -1810 l1 -195 45 1 c187 4 410 24 560 50 166 28
227 41 355 74 190 48 438 131 565 187 25 11 74 33 110 49 118 51 314 155 445
235 127 78 408 280 475 341 14 13 54 48 90 78 143 123 326 315 479 505 233
290 404 577 567 950 70 161 169 463 199 606 2 8 10 44 19 80 16 65 50 264 61
354 4 28 8 61 11 75 7 47 18 225 18 324 l1 100 -575 2 c-1469 7 -3459 12
-3462 9z"/>
</g>
</svg>
